<?xml version="1.0" encoding="UTF-8"?>
<!DOCTYPE svg PUBLIC "-//W3C//DTD SVG 1.1//EN" "http://www.w3.org/Graphics/SVG/1.1/DTD/svg11.dtd">
<!-- Creator: CorelDRAW -->
<svg xmlns="http://www.w3.org/2000/svg" xml:space="preserve" width="2048px" height="2048px" style="shape-rendering:geometricPrecision; text-rendering:geometricPrecision; image-rendering:optimizeQuality; fill-rule:evenodd; clip-rule:evenodd"
viewBox="0 0 2048 2048"
 xmlns:xlink="http://www.w3.org/1999/xlink">
 <defs>
  <style type="text/css">
   <![CDATA[
    .fil1 {fill:none}
    .fil0 {fill:#212121;fill-rule:nonzero}
   ]]>
  </style>
 </defs>
 <g id="Layer_x0020_1">
  <metadata id="CorelCorpID_0Corel-Layer"/>
  <g id="_423694896">
   <path id="_423695184" class="fil0" d="M512.032 343.31c-17.6043,1.44921 -30.6992,16.8969 -29.25,34.5012 1.44921,17.6043 16.8969,30.6992 34.5012,29.25l945.218 -79.9796c-138.99,148.019 -475.231,533.631 -519.932,843.759 -78.2823,48.3071 -170.599,125 -266.411,225.957 -90.0001,94.8308 -183.401,211.221 -271.472,345.717 -9.66497,14.7732 -5.52402,34.5851 9.24922,44.25 14.7732,9.66497 34.5851,5.52402 44.25,-9.24922 86.0623,-131.428 176.929,-244.739 264.222,-336.717 96.3733,-101.547 188.004,-176.909 263.642,-221.752 9.61418,-4.60985 16.7114,-13.9158 17.9917,-25.291l-31.8 -3.57874 31.7504 3.49961c41.2394,-366.498 550.177,-869.91 563.043,-882.595 6.70512,-6.45591 10.552,-15.7665 9.70631,-25.7634 -1.48937,-17.6102 -16.9736,-30.678 -34.5839,-29.1886l0.0011811 0.0165354 -1030.13 87.1642z"/>
   <path id="_423695136" class="fil0" d="M1404.04 1096.86c93.9591,43.6678 166.009,112.364 206.674,188.406 42.502,79.4788 51.1477,167.197 15.8599,244.311 -35.3079,77.1568 -107.356,127.982 -195.299,147.777 -84.8847,19.1067 -185.034,9.12284 -280.318,-34.4788 -95.2784,-43.5992 -168.313,-112.885 -209.367,-189.654 -42.502,-79.4788 -51.1477,-167.197 -15.8599,-244.311l28.9996 13.2496 -2.34449 -1.07362 -26.654 -12.1772 0.00708662 -0.0165354 -0.106299 -0.0484252c0.422835,-0.923623 0.884646,-1.81772 1.38189,-2.67992 35.7496,-75.6166 107.121,-125.472 194.014,-145.031 84.1123,-18.9343 183.21,-9.29764 277.714,33.3024 1.86732,0.657875 3.63662,1.47284 5.29843,2.42481zm150.423 218.406c-34.4292,-64.3808 -96.1938,-122.896 -177.274,-160.57 -0.810237,-0.294095 -1.61457,-0.622441 -2.41181,-0.987402l0.0484252 -0.10748c-82.2225,-37.6205 -167.842,-46.415 -239.797,-30.2173 -67.9938,15.3047 -123.302,53.0646 -150.23,109.741 -0.578741,1.59213 -1.28622,3.14646 -2.12717,4.64882 -25.2732,57.4571 -17.6894,123.998 15.1701,185.447 34.7599,65.0008 97.3808,124.025 179.615,161.655 82.2296,37.6276 167.858,46.4244 239.818,30.2268 68.9044,-15.5091 124.784,-54.078 151.301,-112.025 26.537,-57.991 19.2,-125.518 -14.1118,-187.812z"/>
  </g>
 </g>
 <rect class="fil1" width="2048" height="2048"/>
</svg>
