<?xml version="1.0" encoding="UTF-8"?>
<!DOCTYPE svg PUBLIC "-//W3C//DTD SVG 1.1//EN" "http://www.w3.org/Graphics/SVG/1.1/DTD/svg11.dtd">
<!-- Creator: CorelDRAW -->
<svg xmlns="http://www.w3.org/2000/svg" xml:space="preserve" width="2048px" height="2048px" style="shape-rendering:geometricPrecision; text-rendering:geometricPrecision; image-rendering:optimizeQuality; fill-rule:evenodd; clip-rule:evenodd"
viewBox="0 0 2048 2048"
 xmlns:xlink="http://www.w3.org/1999/xlink">
 <defs>
  <style type="text/css">
   <![CDATA[
    .fil1 {fill:none}
    .fil0 {fill:#212121;fill-rule:nonzero}
   ]]>
  </style>
 </defs>
 <g id="Layer_x0020_1">
  <metadata id="CorelCorpID_0Corel-Layer"/>
  <g id="_423695232">
   <path id="_423695688" class="fil0" d="M1782.56 835.309c12.4949,-12.4949 12.4949,-32.7555 0,-45.2504 -12.4949,-12.4949 -32.7555,-12.4949 -45.2504,0l-155.151 155.149 -153.965 -153.964 0.00236221 -0.00236221c-11.2099,-11.2099 -28.6677,-12.3614 -41.1638,-3.46063l-178.632 103.132 -110.603 -110.603 0.00236221 -0.00236221c-12.4961,-12.4961 -32.7591,-12.4961 -45.2552,0 -2.71536,2.71536 -4.84134,5.79804 -6.3756,9.08741 -99.9745,171.02 -217.216,118.715 -337.911,64.8331 -148.174,-66.1477 -300.66,-134.223 -446.948,87.9166 -9.66497,14.7047 -5.57953,34.4611 9.1252,44.126 14.7047,9.66497 34.4611,5.57953 44.126,-9.1252 116.45,-176.83 243.875,-119.945 367.696,-64.6678 139.539,62.2937 275.29,122.847 398.602,-58.6052l99.0225 99.0225c9.95316,10.448 26.1059,13.1528 39.1559,5.61851l-0.0696851 -0.120473 181.238 -104.636 159.149 159.148 0.177165 0.18189c12.4961,12.4961 32.7591,12.4961 45.2552,0l-0.00236221 -0.00236221 177.776 -177.774z"/>
   <path id="_423695616" class="fil0" d="M1782.56 1089.92c12.4949,-12.4949 12.4949,-32.7555 0,-45.2504 -12.4949,-12.4949 -32.7555,-12.4949 -45.2504,0l-155.151 155.149 -153.965 -153.964 0.00236221 -0.00236221c-11.2099,-11.2099 -28.6677,-12.3614 -41.1638,-3.46063l-178.632 103.132 -110.603 -110.603 0.00236221 -0.00236221c-12.4961,-12.4961 -32.7591,-12.4961 -45.2552,0 -2.71536,2.71536 -4.84134,5.79804 -6.3756,9.08741 -99.9733,171.019 -217.216,118.715 -337.911,64.8331 -148.174,-66.1477 -300.66,-134.223 -446.948,87.9166 -9.66497,14.7047 -5.57953,34.4611 9.1252,44.126 14.7047,9.66497 34.4611,5.57953 44.126,-9.1252 116.451,-176.831 243.874,-119.945 367.696,-64.6678 139.539,62.2937 275.29,122.848 398.602,-58.6052l99.0225 99.0225c9.95316,10.448 26.1059,13.1528 39.1559,5.61851l-0.0696851 -0.120473 181.238 -104.636 159.149 159.148 0.177165 0.18189c12.4961,12.4961 32.7591,12.4961 45.2552,0l-0.00236221 -0.00236221 177.776 -177.774z"/>
  </g>
 </g>
 <rect class="fil1" width="2048" height="2048"/>
</svg>
