<?xml version="1.0" encoding="UTF-8"?>
<!DOCTYPE svg PUBLIC "-//W3C//DTD SVG 1.1//EN" "http://www.w3.org/Graphics/SVG/1.1/DTD/svg11.dtd">
<!-- Creator: CorelDRAW -->
<svg xmlns="http://www.w3.org/2000/svg" xml:space="preserve" width="2048px" height="2048px" style="shape-rendering:geometricPrecision; text-rendering:geometricPrecision; image-rendering:optimizeQuality; fill-rule:evenodd; clip-rule:evenodd"
viewBox="0 0 2048 2048"
 xmlns:xlink="http://www.w3.org/1999/xlink">
 <defs>
  <style type="text/css">
   <![CDATA[
    .fil1 {fill:none}
    .fil0 {fill:#212121;fill-rule:nonzero}
   ]]>
  </style>
 </defs>
 <g id="Layer_x0020_1">
  <metadata id="CorelCorpID_0Corel-Layer"/>
  <g id="_423695976">
   <path id="_423696456" class="fil0" d="M1232.45 1056.07c17.6728,0 32.0008,-14.328 32.0008,-32.0008 0,-17.6728 -14.328,-32.0008 -32.0008,-32.0008l-416.901 0c-17.6728,0 -32.0008,14.328 -32.0008,32.0008 0,17.6728 14.328,32.0008 32.0008,32.0008l416.901 0z"/>
   <path id="_423696264" class="fil0" d="M417.261 263.192c-13.7374,-11.1142 -33.8859,-8.98701 -45,4.7504 -11.1142,13.7374 -8.98701,33.8859 4.7504,45 2.47559,2.00197 871.687,690.697 62.7497,1423.5 -13.0476,11.8051 -14.0551,31.9536 -2.25,45.0012 11.8051,13.0476 31.9536,14.0551 45.0012,2.25 864.907,-783.504 -62.6103,-1518.36 -65.2512,-1520.5z"/>
   <path id="_423696096" class="fil0" d="M1670.99 312.943c13.7374,-11.1142 15.8646,-31.2626 4.7504,-45 -11.1142,-13.7374 -31.2626,-15.8646 -45,-4.7504 -2.64095,2.13662 -930.158,736.997 -65.2512,1520.5 13.0476,11.8051 33.1961,10.7976 45.0012,-2.25 11.8051,-13.0476 10.7976,-33.1961 -2.25,-45.0012 -808.938,-732.801 60.2741,-1421.5 62.7497,-1423.5z"/>
  </g>
 </g>
 <rect class="fil1" width="2048" height="2048"/>
</svg>
