<?xml version="1.0" encoding="UTF-8"?>
<!DOCTYPE svg PUBLIC "-//W3C//DTD SVG 1.1//EN" "http://www.w3.org/Graphics/SVG/1.1/DTD/svg11.dtd">
<!-- Creator: CorelDRAW -->
<svg xmlns="http://www.w3.org/2000/svg" xml:space="preserve" width="2048px" height="2048px" style="shape-rendering:geometricPrecision; text-rendering:geometricPrecision; image-rendering:optimizeQuality; fill-rule:evenodd; clip-rule:evenodd"
viewBox="0 0 2048 2048"
 xmlns:xlink="http://www.w3.org/1999/xlink">
 <defs>
  <style type="text/css">
   <![CDATA[
    .fil1 {fill:none}
    .fil0 {fill:#212121;fill-rule:nonzero}
   ]]>
  </style>
 </defs>
 <g id="Layer_x0020_1">
  <metadata id="CorelCorpID_0Corel-Layer"/>
  <g id="_423697080">
   <path id="_423697512" class="fil0" d="M257.249 748.062c-4.6252,16.9819 5.39292,34.5 22.3748,39.1252 16.9819,4.6252 34.5,-5.39292 39.1252,-22.3748 38.8441,-141.98 97.8048,-229.902 164.951,-271.79 42.3461,-26.4166 88.3512,-34.2236 134.578,-25.526 48.1618,9.06142 97.2355,35.8701 143.58,78.1772 109.463,99.9261 201.029,283.458 230.387,523.639 2.14016,17.5347 18.091,30.0154 35.6256,27.8752 17.5347,-2.14016 30.0154,-18.091 27.8752,-35.6256 -31.3063,-256.113 -131.114,-453.8 -250.889,-563.139 -55.0583,-50.2607 -114.803,-82.382 -174.829,-93.6757 -61.9607,-11.6587 -123.526,-1.25433 -180.079,34.0252 -80.1095,49.976 -149.212,150.337 -192.699,309.29z"/>
   <path id="_423697464" class="fil0" d="M1729.25 764.813c4.6252,16.9819 22.1433,27 39.1252,22.3748 16.9819,-4.6252 27,-22.1433 22.3748,-39.1252 -43.487,-158.953 -112.59,-259.314 -192.699,-309.29 -56.5536,-35.2796 -118.119,-45.6839 -180.079,-34.0252 -60.026,11.2937 -119.771,43.415 -174.829,93.6757 -119.775,109.339 -219.582,307.027 -250.889,563.139 -2.14016,17.5347 10.3406,33.4855 27.8752,35.6256 17.5347,2.14016 33.4855,-10.3406 35.6256,-27.8752 29.3587,-240.181 120.924,-423.713 230.387,-523.639 46.3441,-42.3071 95.4178,-69.1158 143.58,-78.1772 46.2272,-8.69764 92.2324,-0.890552 134.578,25.526 67.1457,41.8878 126.106,129.809 164.951,271.79z"/>
   <path id="_423697176" class="fil0" d="M1056 1065.42c0,-17.6728 -14.328,-32.0008 -32.0008,-32.0008 -17.6728,0 -32.0008,14.328 -32.0008,32.0008l0 550.399c0,17.6728 14.328,32.0008 32.0008,32.0008 17.6728,0 32.0008,-14.328 32.0008,-32.0008l0 -550.399z"/>
  </g>
 </g>
 <rect class="fil1" width="2048" height="2048"/>
</svg>
