<?xml version="1.0" encoding="UTF-8"?>
<!DOCTYPE svg PUBLIC "-//W3C//DTD SVG 1.1//EN" "http://www.w3.org/Graphics/SVG/1.1/DTD/svg11.dtd">
<!-- Creator: CorelDRAW -->
<svg xmlns="http://www.w3.org/2000/svg" xml:space="preserve" width="2048px" height="2048px" style="shape-rendering:geometricPrecision; text-rendering:geometricPrecision; image-rendering:optimizeQuality; fill-rule:evenodd; clip-rule:evenodd"
viewBox="0 0 2048 2048"
 xmlns:xlink="http://www.w3.org/1999/xlink">
 <defs>
  <style type="text/css">
   <![CDATA[
    .fil1 {fill:none}
    .fil0 {fill:#212121;fill-rule:nonzero}
   ]]>
  </style>
 </defs>
 <g id="Layer_x0020_1">
  <metadata id="CorelCorpID_0Corel-Layer"/>
  <g id="_423698136">
   <path id="_423698016" class="fil0" d="M261.624 525.297c-9.87166,14.5665 -6.06615,34.3784 8.5004,44.25 14.5665,9.87166 34.3784,6.06615 44.25,-8.5004 0.357874,-0.527953 124.159,-186.037 203.828,-42.9969l27.8752 -15.4996 -27.9567 15.5705c0.539764,0.969686 1.12205,1.89921 1.74449,2.78977 179.052,282.138 339.69,423.218 504.135,423.218 164.686,0 325.553,-141.486 504.923,-424.453l-27 -17.1248 27.0272 17.1319c0.701575,-1.10669 1.3252,-2.24055 1.87559,-3.39567 79.702,-139.651 202.443,44.2347 202.8,44.7603 9.87166,14.5665 29.6835,18.3721 44.25,8.5004 14.5665,-9.87166 18.3721,-29.6835 8.5004,-44.25 -0.522048,-0.770079 -180.229,-270.48 -310.722,-41.0185 -0.258662,0.373229 -0.512599,0.752363 -0.758268,1.13976l0.022441 0.0141732c-166.793,263.127 -310.768,394.694 -450.918,394.694 -140.151,0 -284.127,-131.569 -450.923,-394.701l-0.0484252 0.0307087c-130.549,-231.601 -310.882,39.0697 -311.405,39.841z"/>
   <path id="_423697896" class="fil0" d="M1024 880.114c107.152,0 204.167,43.4363 274.392,113.661 70.2249,70.2249 113.661,167.239 113.661,274.392 0,107.152 -43.4363,204.167 -113.661,274.392 -70.2249,70.2249 -167.239,113.661 -274.392,113.661 -107.152,0 -204.167,-43.4363 -274.392,-113.661 -70.2249,-70.2249 -113.661,-167.239 -113.661,-274.392 0,-107.152 43.4363,-204.167 113.661,-274.392 70.2249,-70.2249 167.239,-113.661 274.392,-113.661zm229.141 158.912c-58.6394,-58.6394 -139.654,-94.9099 -229.141,-94.9099 -89.4875,0 -170.502,36.2705 -229.141,94.9099 -58.6394,58.6394 -94.9099,139.654 -94.9099,229.141 0,89.4875 36.2705,170.502 94.9099,229.141 58.6394,58.6394 139.654,94.9099 229.141,94.9099 89.4875,0 170.502,-36.2705 229.141,-94.9099 58.6394,-58.6394 94.9099,-139.654 94.9099,-229.141 0,-89.4875 -36.2705,-170.502 -94.9099,-229.141z"/>
  </g>
 </g>
 <rect class="fil1" width="2048" height="2048"/>
</svg>
