<?xml version="1.0" encoding="UTF-8"?>
<!DOCTYPE svg PUBLIC "-//W3C//DTD SVG 1.1//EN" "http://www.w3.org/Graphics/SVG/1.1/DTD/svg11.dtd">
<!-- Creator: CorelDRAW -->
<svg xmlns="http://www.w3.org/2000/svg" xml:space="preserve" width="2048px" height="2048px" style="shape-rendering:geometricPrecision; text-rendering:geometricPrecision; image-rendering:optimizeQuality; fill-rule:evenodd; clip-rule:evenodd"
viewBox="0 0 2048 2048"
 xmlns:xlink="http://www.w3.org/1999/xlink">
 <defs>
  <style type="text/css">
   <![CDATA[
    .fil1 {fill:none}
    .fil0 {fill:#212121;fill-rule:nonzero}
   ]]>
  </style>
 </defs>
 <g id="Layer_x0020_1">
  <metadata id="CorelCorpID_0Corel-Layer"/>
  <g id="_423699384">
   <path id="_423700752" class="fil0" d="M1392.73 255.999c99.6757,0 189.565,48.7111 254.318,127.462 63.3402,77.0351 102.517,182.991 102.517,299.606 0,116.615 -39.1772,222.571 -102.517,299.606 -64.7516,78.7524 -154.641,127.463 -254.318,127.463 -99.6745,0 -189.566,-48.7111 -254.316,-127.463 -63.3402,-77.0351 -102.517,-182.991 -102.517,-299.606 0,-116.614 39.1772,-222.571 102.517,-299.606 64.7504,-78.7512 154.639,-127.462 254.316,-127.462zm205.068 167.962c-52.813,-64.2308 -125.343,-103.961 -205.068,-103.961 -79.7257,0 -152.255,39.73 -205.067,103.961 -54.2256,65.9493 -87.7654,157.531 -87.7654,259.106 0,101.576 33.5398,193.156 87.7654,259.106 52.8119,64.2319 125.342,103.962 205.067,103.962 79.7257,0 152.255,-39.73 205.068,-103.962 54.2256,-65.9493 87.7654,-157.53 87.7654,-259.106 0,-101.576 -33.5398,-193.156 -87.7654,-259.106z"/>
   <path id="_423700248" class="fil0" d="M1003.37 1735.62c-13.4622,11.3906 -15.1406,31.539 -3.75,45.0012 11.3906,13.4622 31.539,15.1406 45.0012,3.75 1.92638,-1.63465 671.769,-564.709 704.814,-1099.43 1.03583,-17.6043 -12.3957,-32.7154 -30,-33.7512 -17.6043,-1.03583 -32.7154,12.3957 -33.7512,30 -31.337,507.085 -680.447,1052.84 -682.314,1054.43z"/>
   <path id="_423699912" class="fil0" d="M655.27 1792c-99.6757,0 -189.565,-48.7111 -254.318,-127.462 -63.3402,-77.0351 -102.517,-182.991 -102.517,-299.606 0,-116.615 39.1772,-222.571 102.517,-299.606 64.7516,-78.7524 154.641,-127.463 254.318,-127.463 99.6745,0 189.566,48.7111 254.316,127.463 63.3402,77.0351 102.517,182.991 102.517,299.606 0,116.614 -39.1772,222.571 -102.517,299.606 -64.7504,78.7512 -154.639,127.462 -254.316,127.462zm-205.068 -167.962c52.813,64.2308 125.343,103.961 205.068,103.961 79.7257,0 152.255,-39.73 205.067,-103.961 54.2256,-65.9493 87.7654,-157.531 87.7654,-259.106 0,-101.576 -33.5398,-193.156 -87.7654,-259.106 -52.8119,-64.2319 -125.342,-103.962 -205.067,-103.962 -79.7257,0 -152.255,39.73 -205.068,103.962 -54.2256,65.9493 -87.7654,157.53 -87.7654,259.106 0,101.576 33.5398,193.156 87.7654,259.106z"/>
   <path id="_423699576" class="fil0" d="M1044.63 312.378c13.4622,-11.3906 15.1406,-31.539 3.75,-45.0012 -11.3906,-13.4622 -31.539,-15.1406 -45.0012,-3.75 -1.92638,1.63465 -671.769,564.709 -704.814,1099.43 -1.03583,17.6043 12.3957,32.7154 30,33.7512 17.6043,1.03583 32.7154,-12.3957 33.7512,-30 31.337,-507.085 680.447,-1052.84 682.314,-1054.43z"/>
  </g>
 </g>
 <rect class="fil1" width="2048" height="2048"/>
</svg>
