<?xml version="1.0" encoding="UTF-8"?>
<!DOCTYPE svg PUBLIC "-//W3C//DTD SVG 1.1//EN" "http://www.w3.org/Graphics/SVG/1.1/DTD/svg11.dtd">
<!-- Creator: CorelDRAW -->
<svg xmlns="http://www.w3.org/2000/svg" xml:space="preserve" width="2048px" height="2048px" style="shape-rendering:geometricPrecision; text-rendering:geometricPrecision; image-rendering:optimizeQuality; fill-rule:evenodd; clip-rule:evenodd"
viewBox="0 0 2048 2048"
 xmlns:xlink="http://www.w3.org/1999/xlink">
 <defs>
  <style type="text/css">
   <![CDATA[
    .fil1 {fill:none}
    .fil0 {fill:#212121;fill-rule:nonzero}
   ]]>
  </style>
 </defs>
 <g id="Layer_x0020_1">
  <metadata id="CorelCorpID_0Corel-Layer"/>
  <g id="_423700632">
   <path id="_423700344" class="fil0" d="M885.33 1056.27c9.94017,14.5665 29.8087,18.3154 44.3752,8.3752 14.5665,-9.94017 18.3154,-29.8087 8.3752,-44.3752 -158.204,-231.448 -167.582,-408.627 -104.753,-526.496 40.5851,-76.1386 111.687,-128.274 191.933,-154.413 80.9493,-26.3705 170.78,-26.2252 247.986,2.38229 104.341,38.6611 185.444,130.891 187.909,281.879 2.05394,125.817 -38.2099,202.332 -87.9083,296.778 -13.6677,25.9725 -28.0358,53.2772 -43.6217,85.7351 -166.352,346.412 -187.715,554.215 -142.051,666.766 20.0433,49.402 52.4823,81.7997 91.7363,100.328 38.2111,18.0366 82.1221,22.2921 126.625,15.9248 106.136,-15.1866 218.988,-92.9316 260.85,-186.686 7.17875,-16.0843 -0.0401575,-34.9465 -16.1244,-42.1252 -16.0843,-7.17875 -34.9465,0.0401575 -42.1252,16.1244 -33.3969,74.7957 -124.969,137.041 -211.601,149.437 -32.7166,4.68189 -64.1587,1.94882 -90.3745,-10.4256 -25.1729,-11.8807 -46.2461,-33.3284 -59.7355,-66.5764 -39.7725,-98.0304 -16.9205,-287.867 140.301,-615.265 13.6913,-28.513 28.5154,-56.6835 42.6201,-83.4863 53.8536,-102.34 97.4824,-185.254 95.1603,-327.527 -2.97166,-181.954 -102.102,-293.615 -229.661,-340.879 -90.5292,-33.5445 -195.474,-33.8398 -289.735,-3.13347 -94.9654,30.9343 -179.518,93.3969 -228.434,185.164 -73.0772,137.094 -65.8288,337.818 108.254,592.496z"/>
   <path id="_423700800" class="fil0" d="M679.16 869.87c83.0375,0 158.219,33.6614 212.641,88.0831 54.4217,54.4217 88.0831,129.604 88.0831,212.641 0,83.0386 -33.6614,158.222 -88.0831,212.641 -54.4217,54.4217 -129.602,88.0831 -212.641,88.0831 -83.0386,0 -158.221,-33.6626 -212.642,-88.082 -54.4193,-54.4217 -88.082,-129.604 -88.082,-212.642 0,-83.0386 33.6614,-158.219 88.0831,-212.641 54.4193,-54.4217 129.602,-88.0831 212.641,-88.0831zm167.391 133.334c-42.8363,-42.8363 -102.019,-69.3319 -167.391,-69.3319 -65.3729,0 -124.556,26.4969 -167.391,69.3319 -42.8363,42.8363 -69.3319,102.018 -69.3319,167.391 0,65.3729 26.4957,124.557 69.3308,167.392 42.8351,42.8351 102.019,69.3308 167.392,69.3308 65.3729,0 124.554,-26.4957 167.391,-69.3319 42.8351,-42.8351 69.3319,-102.018 69.3319,-167.391 0,-65.3717 -26.4957,-124.554 -69.3319,-167.391z"/>
  </g>
 </g>
 <rect class="fil1" width="2048" height="2048"/>
</svg>
