<?xml version="1.0" encoding="UTF-8"?>
<!DOCTYPE svg PUBLIC "-//W3C//DTD SVG 1.1//EN" "http://www.w3.org/Graphics/SVG/1.1/DTD/svg11.dtd">
<!-- Creator: CorelDRAW -->
<svg xmlns="http://www.w3.org/2000/svg" xml:space="preserve" width="2048px" height="2048px" style="shape-rendering:geometricPrecision; text-rendering:geometricPrecision; image-rendering:optimizeQuality; fill-rule:evenodd; clip-rule:evenodd"
viewBox="0 0 2048 2048"
 xmlns:xlink="http://www.w3.org/1999/xlink">
 <defs>
  <style type="text/css">
   <![CDATA[
    .fil1 {fill:none}
    .fil0 {fill:#212121;fill-rule:nonzero}
   ]]>
  </style>
 </defs>
 <g id="Layer_x0020_1">
  <metadata id="CorelCorpID_0Corel-Layer"/>
  <g id="_422241968">
   <path id="_422242448" class="fil0" d="M575.847 287.999c0,-17.6728 -14.328,-32.0008 -32.0008,-32.0008 -17.6728,0 -32.0008,14.328 -32.0008,32.0008l0 1250.53c0,17.6728 14.328,32.0008 32.0008,32.0008 17.6728,0 32.0008,-14.328 32.0008,-32.0008l0 -1250.53z"/>
   <path id="_422242232" class="fil0" d="M339.711 367.132c-15.3248,8.69764 -20.6977,28.1752 -12,43.5 8.69764,15.3248 28.1752,20.6977 43.5,12l188.385 -106.883c15.3248,-8.69764 20.6977,-28.1752 12,-43.5 -8.69764,-15.3248 -28.1752,-20.6977 -43.5,-12l-188.385 106.883z"/>
   <path id="_422242592" class="fil0" d="M899.137 287.999c0,-17.6728 -14.328,-32.0008 -32.0008,-32.0008 -17.6728,0 -32.0008,14.328 -32.0008,32.0008l0 1250.53c0,17.6728 14.328,32.0008 32.0008,32.0008 17.6728,0 32.0008,-14.328 32.0008,-32.0008l0 -1250.53z"/>
   <path id="_422242544" class="fil0" d="M530.846 403.167c-16.0843,7.17875 -23.3032,26.041 -16.1244,42.1252 7.17875,16.0843 26.041,23.3032 42.1252,16.1244l323.29 -144.293c16.0843,-7.17875 23.3032,-26.041 16.1244,-42.1252 -7.17875,-16.0843 -26.041,-23.3032 -42.1252,-16.1244l-323.29 144.293z"/>
   <path id="_422241824" class="fil0" d="M1222.42 287.999c0,-17.6728 -14.328,-32.0008 -32.0008,-32.0008 -17.6728,0 -32.0008,14.328 -32.0008,32.0008l0 1250.53c0,17.6728 14.328,32.0008 32.0008,32.0008 17.6728,0 32.0008,-14.328 32.0008,-32.0008l0 -1250.53z"/>
   <path id="_422241512" class="fil0" d="M854.125 403.167c-16.0843,7.17875 -23.3032,26.041 -16.1244,42.1252 7.17875,16.0843 26.041,23.3032 42.1252,16.1244l323.29 -144.293c16.0843,-7.17875 23.3032,-26.041 16.1244,-42.1252 -7.17875,-16.0843 -26.041,-23.3032 -42.1252,-16.1244l-323.29 144.293z"/>
   <path id="_422242088" class="fil0" d="M1169.55 408.542c-13.1162,11.7354 -14.2347,31.8839 -2.49921,45 11.7354,13.1162 31.8839,14.2347 45,2.49921l152.401 -136.042 230.797 0c17.6728,0 32.0008,-14.328 32.0008,-32.0008 0,-17.6728 -14.328,-32.0008 -32.0008,-32.0008l-242.804 0 0 0.00354331c-7.58741,-0.00236221 -15.2043,2.6752 -21.3095,8.12481l21.3095 23.8725 -21.2504 -23.7496 -161.645 144.293z"/>
   <path id="_422242136" class="fil0" d="M1627.88 292.125c2.27835,-17.465 -10.0347,-33.4725 -27.4996,-35.7508 -17.465,-2.27835 -33.4725,10.0347 -35.7508,27.4996 -0.312992,2.36929 -109.232,806.24 88.1044,1174.31l-63.4382 63.4359c-64.9938,-12.4831 -298.807,-52.9996 -409.629,-13.0866 -134.342,48.3839 -144.807,77.5158 -144.84,77.5997 -6.55749,16.3606 1.39016,34.9429 17.7508,41.5004 16.3606,6.55749 34.9429,-1.39016 41.5004,-17.7508 0.00236221,-0.00826772 0.194882,-2.85118 107.089,-41.3492 106.282,-38.2772 363.403,13.0606 389.964,18.5232 10.7976,3.06142 22.8874,0.346063 31.3866,-8.15316l-0.00236221 -0.00236221 92.0493 -92.0469c10.5874,-10.102 13.1681,-26.5264 5.32441,-39.6l-0.0862205 0.0519685c-202.624,-337.78 -92.2335,-1152.82 -91.9229,-1155.18z"/>
   <path id="_422241992" class="fil0" d="M1248.22 1760c0,17.6728 14.328,32.0008 32.0008,32.0008 17.6728,0 32.0008,-14.328 32.0008,-32.0008l0 -236.478c0,-17.6728 -14.328,-32.0008 -32.0008,-32.0008 -17.6728,0 -32.0008,14.328 -32.0008,32.0008l0 236.478z"/>
  </g>
 </g>
 <rect class="fil1" width="2048" height="2048"/>
</svg>
