<?xml version="1.0" encoding="UTF-8"?>
<!DOCTYPE svg PUBLIC "-//W3C//DTD SVG 1.1//EN" "http://www.w3.org/Graphics/SVG/1.1/DTD/svg11.dtd">
<!-- Creator: CorelDRAW -->
<svg xmlns="http://www.w3.org/2000/svg" xml:space="preserve" width="2048px" height="2048px" style="shape-rendering:geometricPrecision; text-rendering:geometricPrecision; image-rendering:optimizeQuality; fill-rule:evenodd; clip-rule:evenodd"
viewBox="0 0 2048 2048"
 xmlns:xlink="http://www.w3.org/1999/xlink">
 <defs>
  <style type="text/css">
   <![CDATA[
    .fil1 {fill:none}
    .fil0 {fill:#212121;fill-rule:nonzero}
   ]]>
  </style>
 </defs>
 <g id="Layer_x0020_1">
  <metadata id="CorelCorpID_0Corel-Layer"/>
  <g id="_422234864">
   <path id="_422235272" class="fil0" d="M297.503 756.578c-16.8437,-5.24646 -34.7528,4.1563 -39.9992,21 -5.24646,16.8437 4.1563,34.7528 21,39.9992 134.042,42.0957 440.279,63.1453 745.491,63.1453 305.214,0 611.45,-21.0496 745.492,-63.1453 16.8437,-5.24646 26.2465,-23.1555 21,-39.9992 -5.24646,-16.8437 -23.1555,-26.2465 -39.9992,-21 -127.669,40.0937 -426.572,60.143 -726.493,60.143 -299.92,0 -598.823,-20.0492 -726.492,-60.143z"/>
   <path id="_422235512" class="fil0" d="M278.504 1036.41c-16.8437,5.24646 -26.2465,23.1555 -21,39.9992 5.24646,16.8437 23.1555,26.2465 39.9992,21 127.669,-40.0937 426.572,-60.143 726.492,-60.143 299.921,0 598.824,20.0492 726.493,60.143 16.8437,5.24646 34.7528,-4.1563 39.9992,-21 5.24646,-16.8437 -4.1563,-34.7528 -21,-39.9992 -134.042,-42.0957 -440.279,-63.1453 -745.492,-63.1453 -305.212,0 -611.449,21.0496 -745.491,63.1453z"/>
   <path id="_422235488" class="fil0" d="M320.005 787.078c0,-17.6728 -14.328,-32.0008 -32.0008,-32.0008 -17.6728,0 -32.0008,14.328 -32.0008,32.0008l0 279.827c0,17.6728 14.328,32.0008 32.0008,32.0008 17.6728,0 32.0008,-14.328 32.0008,-32.0008l0 -279.827z"/>
   <path id="_422234744" class="fil0" d="M1792 787.078c0,-17.6728 -14.328,-32.0008 -32.0008,-32.0008 -17.6728,0 -32.0008,14.328 -32.0008,32.0008l0 279.827c0,17.6728 14.328,32.0008 32.0008,32.0008 17.6728,0 32.0008,-14.328 32.0008,-32.0008l0 -279.827z"/>
   <path id="_422234888" class="fil0" d="M1198.71 1006.86c0,-17.6728 -14.328,-32.0008 -32.0008,-32.0008 -17.6728,0 -32.0008,14.328 -32.0008,32.0008l0 111.357c0,30.4099 -12.4642,58.0784 -32.5441,78.1595 -20.0811,20.0799 -47.7496,32.5441 -78.1595,32.5441l-0.00472441 0c-30.4099,0 -58.0784,-12.4642 -78.1595,-32.5441 -20.0788,-20.0788 -32.5441,-47.7496 -32.5441,-78.1595l0 -111.357c0,-17.6728 -14.328,-32.0008 -32.0008,-32.0008 -17.6728,0 -32.0008,14.328 -32.0008,32.0008l0 111.357c0,48.0756 19.6465,91.7611 51.2953,123.41 31.65,31.6488 75.3343,51.2953 123.41,51.2953l0.00472441 0c48.0756,0 91.7599,-19.6465 123.41,-51.2953 31.6488,-31.65 51.2953,-75.3343 51.2953,-123.41l0 -111.357z"/>
  </g>
 </g>
 <rect class="fil1" width="2048" height="2048"/>
</svg>
