<?xml version="1.0" encoding="UTF-8"?>
<!DOCTYPE svg PUBLIC "-//W3C//DTD SVG 1.1//EN" "http://www.w3.org/Graphics/SVG/1.1/DTD/svg11.dtd">
<!-- Creator: CorelDRAW -->
<svg xmlns="http://www.w3.org/2000/svg" xml:space="preserve" width="2048px" height="2048px" style="shape-rendering:geometricPrecision; text-rendering:geometricPrecision; image-rendering:optimizeQuality; fill-rule:evenodd; clip-rule:evenodd"
viewBox="0 0 2048 2048"
 xmlns:xlink="http://www.w3.org/1999/xlink">
 <defs>
  <style type="text/css">
   <![CDATA[
    .fil1 {fill:none}
    .fil0 {fill:#212121;fill-rule:nonzero}
   ]]>
  </style>
 </defs>
 <g id="Layer_x0020_1">
  <metadata id="CorelCorpID_0Corel-Layer"/>
  <g id="_422235872">
   <path id="_422236592" class="fil0" d="M272.257 419.911c-15.3248,8.69764 -20.6977,28.1752 -12,43.5 8.69764,15.3248 28.1752,20.6977 43.5,12l238.148 -135.116c15.3248,-8.69764 20.6977,-28.1752 12,-43.5 -8.69764,-15.3248 -28.1752,-20.6977 -43.5,-12l-238.148 135.116z"/>
   <path id="_422236760" class="fil0" d="M513.155 465.828c-16.0843,7.17875 -23.3032,26.041 -16.1244,42.1252 7.17875,16.0843 26.041,23.3032 42.1252,16.1244l408.69 -182.408c16.0843,-7.17875 23.3032,-26.041 16.1244,-42.1252 -7.17875,-16.0843 -26.041,-23.3032 -42.1252,-16.1244l-408.69 182.408z"/>
   <path id="_422236736" class="fil0" d="M921.832 465.828c-16.0843,7.17875 -23.3032,26.041 -16.1244,42.1252 7.17875,16.0843 26.041,23.3032 42.1252,16.1244l408.69 -182.408c16.0843,-7.17875 23.3032,-26.041 16.1244,-42.1252 -7.17875,-16.0843 -26.041,-23.3032 -42.1252,-16.1244l-408.69 182.408z"/>
   <path id="_422236448" class="fil0" d="M558.156 312.545c0,-17.6728 -14.328,-32.0008 -32.0008,-32.0008 -17.6728,0 -32.0008,14.328 -32.0008,32.0008l0 1409.5c0,17.6728 14.328,32.0008 32.0008,32.0008 17.6728,0 32.0008,-14.328 32.0008,-32.0008l0 -1409.5z"/>
   <path id="_422236424" class="fil0" d="M966.846 312.545c0,-17.6728 -14.328,-32.0008 -32.0008,-32.0008 -17.6728,0 -32.0008,14.328 -32.0008,32.0008l0 1409.5c0,17.6728 14.328,32.0008 32.0008,32.0008 17.6728,0 32.0008,-14.328 32.0008,-32.0008l0 -1409.5z"/>
   <path id="_422236352" class="fil0" d="M1763.1 1566.77c9.18072,-15.0496 4.42441,-34.6949 -10.6252,-43.8756 -15.0496,-9.18072 -34.6949,-4.42441 -43.8756,10.6252 -46.0111,75.2989 -109.737,129.628 -170.607,154.752 -29.0185,11.9764 -56.9445,17.0469 -81.2186,14.1839 -21.3803,-2.52166 -39.9709,-11.6693 -53.5807,-28.2839 -16.1941,-19.7705 -26.4012,-50.2819 -27.7618,-93.0131l0.0968505 0 0 -1268.61c0,-17.6728 -14.328,-32.0008 -32.0008,-32.0008 -17.6728,0 -32.0008,14.328 -32.0008,32.0008l0 1268.61 0.00236221 0c0.0011811,0.307087 0.00236221,0.615355 0.011811,0.924804l0.112205 -0.00354331c1.70079,58.5508 17.2028,102.273 42.0402,132.592 24.776,30.2445 57.9922,46.8225 95.8312,51.2847 34.9465,4.12087 73.6678,-2.56654 112.719,-18.6839 72.4879,-29.9185 147.608,-93.3591 200.857,-180.502z"/>
   <path id="_422236232" class="fil0" d="M1546.3 1542.68c-17.465,2.27835 -29.778,18.2858 -27.4996,35.7508 2.27835,17.465 18.2858,29.778 35.7508,27.4996l153.788 -20.041 20.0421 153.795c2.27835,17.465 18.2858,29.778 35.7508,27.4996 17.465,-2.27835 29.778,-18.2858 27.4996,-35.7508l-23.8252 -182.823c-0.0413386,-0.863386 -0.11811,-1.7315 -0.231496,-2.60315 -2.28307,-17.524 -18.3425,-29.8796 -35.8666,-27.5965l4.13504 31.7315 -4.12559 -31.6252 -185.418 24.163z"/>
  </g>
 </g>
 <rect class="fil1" width="2048" height="2048"/>
</svg>
