<?xml version="1.0" encoding="UTF-8"?>
<!DOCTYPE svg PUBLIC "-//W3C//DTD SVG 1.1//EN" "http://www.w3.org/Graphics/SVG/1.1/DTD/svg11.dtd">
<!-- Creator: CorelDRAW -->
<svg xmlns="http://www.w3.org/2000/svg" xml:space="preserve" width="2048px" height="2048px" style="shape-rendering:geometricPrecision; text-rendering:geometricPrecision; image-rendering:optimizeQuality; fill-rule:evenodd; clip-rule:evenodd"
viewBox="0 0 2048 2048"
 xmlns:xlink="http://www.w3.org/1999/xlink">
 <defs>
  <style type="text/css">
   <![CDATA[
    .fil1 {fill:none}
    .fil0 {fill:#212121;fill-rule:nonzero}
   ]]>
  </style>
 </defs>
 <g id="Layer_x0020_1">
  <metadata id="CorelCorpID_0Corel-Layer"/>
  <g id="_422237744">
   <path id="_422238224" class="fil0" d="M1240.91 329.89c-17.465,2.48504 -29.6103,18.6603 -27.1252,36.1252 2.48504,17.465 18.6603,29.6103 36.1252,27.1252l514.587 -73.5154c17.465,-2.48504 29.6103,-18.6603 27.1252,-36.1252 -2.48504,-17.465 -18.6603,-29.6103 -36.1252,-27.1252l-514.587 73.5154z"/>
   <path id="_422238128" class="fil0" d="M1654.86 798.087c-2.48504,17.465 9.66024,33.6402 27.1252,36.1252 17.465,2.48504 33.6402,-9.66024 36.1252,-27.1252l73.5154 -514.587c2.48504,-17.465 -9.66024,-33.6402 -27.1252,-36.1252 -17.465,-2.48504 -33.6402,9.66024 -36.1252,27.1252l-73.5154 514.587z"/>
   <path id="_422237600" class="fil0" d="M1782.62 310.625c12.4949,-12.4949 12.4949,-32.7555 0,-45.2504 -12.4949,-12.4949 -32.7555,-12.4949 -45.2504,0l-1472 1472c-12.4949,12.4949 -12.4949,32.7555 0,45.2504 12.4949,12.4949 32.7555,12.4949 45.2504,0l1472 -1472z"/>
   <path id="_422237864" class="fil0" d="M354.381 1095.02c-12.4949,-12.4949 -32.7555,-12.4949 -45.2504,0 -12.4949,12.4949 -12.4949,32.7555 0,45.2504l598.601 598.601c12.4949,12.4949 32.7555,12.4949 45.2504,0 12.4949,-12.4949 12.4949,-32.7555 0,-45.2504l-598.601 -598.601z"/>
  </g>
 </g>
 <rect class="fil1" width="2048" height="2048"/>
</svg>
