<svg xmlns="http://www.w3.org/2000/svg" viewBox="0 0 32 32"><g id="aquarius"><path d="M3.82,14.57A3.78,3.78,0,0,1,6.94,13a3.47,3.47,0,0,1,2,.76,3.49,3.49,0,0,0,4.27.19,4.77,4.77,0,0,1,5.62,0,3.49,3.49,0,0,0,4.27-.19,3.47,3.47,0,0,1,2-.76,3.76,3.76,0,0,1,3.12,1.57A1,1,0,0,0,29,15a1,1,0,0,0,.57-.18,1,1,0,0,0,.25-1.39A5.91,5.91,0,0,0,24.94,11a5.47,5.47,0,0,0-3.1,1.2,1.51,1.51,0,0,1-1.82.15,6.84,6.84,0,0,0-8,0,1.51,1.51,0,0,1-1.82-.15A5.47,5.47,0,0,0,7.06,11a5.89,5.89,0,0,0-4.88,2.43,1,1,0,0,0,1.64,1.14Z"/><path d="M29.82,20.44A5.74,5.74,0,0,0,24.94,18a5.4,5.4,0,0,0-3.1,1.2,1.51,1.51,0,0,1-1.82.15,6.84,6.84,0,0,0-8,0,1.51,1.51,0,0,1-1.82-.15A5.4,5.4,0,0,0,7.06,18a5.8,5.8,0,0,0-4.88,2.43,1,1,0,0,0,1.64,1.14A4,4,0,0,1,6.94,20a3.5,3.5,0,0,1,2,.77,3.49,3.49,0,0,0,4.28.18,4.77,4.77,0,0,1,5.62,0,3.48,3.48,0,0,0,4.27-.18,3.56,3.56,0,0,1,2-.77,3.86,3.86,0,0,1,3.12,1.58A1,1,0,0,0,29,22a1,1,0,0,0,.57-.18A1,1,0,0,0,29.82,20.44Z"/></g></svg>