<svg fill="#000000" xmlns="http://www.w3.org/2000/svg"  viewBox="0 0 24 24" width="24px" height="24px"><path d="M 2 5 L 2 7 C 2.25 7 2.351563 7.054688 2.53125 7.21875 C 2.710938 7.382813 2.90625 7.6875 3.15625 8.0625 C 3.40625 8.4375 3.710938 8.882813 4.15625 9.28125 C 4.601563 9.679688 5.25 10 6 10 C 6.75 10 7.425781 9.675781 7.875 9.28125 C 8.324219 8.886719 8.617188 8.441406 8.875 8.0625 C 9.132813 7.683594 9.347656 7.386719 9.53125 7.21875 C 9.714844 7.050781 9.789063 7 10 7 C 10.25 7 10.351563 7.054688 10.53125 7.21875 C 10.710938 7.382813 10.90625 7.6875 11.15625 8.0625 C 11.40625 8.4375 11.710938 8.882813 12.15625 9.28125 C 12.601563 9.679688 13.25 10 14 10 C 14.75 10 15.398438 9.679688 15.84375 9.28125 C 16.289063 8.882813 16.59375 8.4375 16.84375 8.0625 C 17.09375 7.6875 17.289063 7.382813 17.46875 7.21875 C 17.648438 7.054688 17.75 7 18 7 C 18.25 7 18.351563 7.054688 18.53125 7.21875 C 18.710938 7.382813 18.90625 7.6875 19.15625 8.0625 C 19.40625 8.4375 19.710938 8.882813 20.15625 9.28125 C 20.601563 9.679688 21.25 10 22 10 L 22 8 C 21.75 8 21.648438 7.945313 21.46875 7.78125 C 21.289063 7.617188 21.09375 7.3125 20.84375 6.9375 C 20.59375 6.5625 20.289063 6.117188 19.84375 5.71875 C 19.398438 5.320313 18.75 5 18 5 C 17.25 5 16.601563 5.320313 16.15625 5.71875 C 15.710938 6.117188 15.40625 6.5625 15.15625 6.9375 C 14.90625 7.3125 14.710938 7.617188 14.53125 7.78125 C 14.351563 7.945313 14.25 8 14 8 C 13.75 8 13.648438 7.945313 13.46875 7.78125 C 13.289063 7.617188 13.09375 7.3125 12.84375 6.9375 C 12.59375 6.5625 12.289063 6.117188 11.84375 5.71875 C 11.398438 5.320313 10.75 5 10 5 C 9.261719 5 8.621094 5.324219 8.1875 5.71875 C 7.753906 6.113281 7.472656 6.566406 7.21875 6.9375 C 6.964844 7.308594 6.722656 7.613281 6.53125 7.78125 C 6.339844 7.949219 6.25 8 6 8 C 5.75 8 5.648438 7.945313 5.46875 7.78125 C 5.289063 7.617188 5.09375 7.3125 4.84375 6.9375 C 4.59375 6.5625 4.289063 6.117188 3.84375 5.71875 C 3.398438 5.320313 2.75 5 2 5 Z M 2 14 L 2 16 C 2.25 16 2.351563 16.054688 2.53125 16.21875 C 2.710938 16.382813 2.90625 16.6875 3.15625 17.0625 C 3.40625 17.4375 3.710938 17.882813 4.15625 18.28125 C 4.601563 18.679688 5.25 19 6 19 C 6.75 19 7.425781 18.675781 7.875 18.28125 C 8.324219 17.886719 8.617188 17.441406 8.875 17.0625 C 9.132813 16.683594 9.347656 16.386719 9.53125 16.21875 C 9.714844 16.050781 9.789063 16 10 16 C 10.25 16 10.351563 16.054688 10.53125 16.21875 C 10.710938 16.382813 10.90625 16.6875 11.15625 17.0625 C 11.40625 17.4375 11.710938 17.882813 12.15625 18.28125 C 12.601563 18.679688 13.25 19 14 19 C 14.75 19 15.398438 18.679688 15.84375 18.28125 C 16.289063 17.882813 16.59375 17.4375 16.84375 17.0625 C 17.09375 16.6875 17.289063 16.382813 17.46875 16.21875 C 17.648438 16.054688 17.75 16 18 16 C 18.25 16 18.351563 16.054688 18.53125 16.21875 C 18.710938 16.382813 18.90625 16.6875 19.15625 17.0625 C 19.40625 17.4375 19.710938 17.882813 20.15625 18.28125 C 20.601563 18.679688 21.25 19 22 19 L 22 17 C 21.75 17 21.648438 16.945313 21.46875 16.78125 C 21.289063 16.617188 21.09375 16.3125 20.84375 15.9375 C 20.59375 15.5625 20.289063 15.117188 19.84375 14.71875 C 19.398438 14.320313 18.75 14 18 14 C 17.25 14 16.601563 14.320313 16.15625 14.71875 C 15.710938 15.117188 15.40625 15.5625 15.15625 15.9375 C 14.90625 16.3125 14.710938 16.617188 14.53125 16.78125 C 14.351563 16.945313 14.25 17 14 17 C 13.75 17 13.648438 16.945313 13.46875 16.78125 C 13.289063 16.617188 13.09375 16.3125 12.84375 15.9375 C 12.59375 15.5625 12.289063 15.117188 11.84375 14.71875 C 11.398438 14.320313 10.75 14 10 14 C 9.261719 14 8.621094 14.324219 8.1875 14.71875 C 7.753906 15.113281 7.472656 15.566406 7.21875 15.9375 C 6.964844 16.308594 6.722656 16.613281 6.53125 16.78125 C 6.339844 16.949219 6.25 17 6 17 C 5.75 17 5.648438 16.945313 5.46875 16.78125 C 5.289063 16.617188 5.09375 16.3125 4.84375 15.9375 C 4.59375 15.5625 4.289063 15.117188 3.84375 14.71875 C 3.398438 14.320313 2.75 14 2 14 Z"/></svg>