<svg fill="#000000" xmlns="http://www.w3.org/2000/svg"  viewBox="0 0 24 24" width="24px" height="24px"><path d="M 7 2 C 5.207031 2 3.863281 2.972656 3.09375 4.03125 C 2.324219 5.089844 2 6.132813 2 7 L 4 7 C 4 6.867188 4.214844 5.910156 4.71875 5.21875 C 5.222656 4.527344 5.894531 4 7 4 C 7.949219 4 8.5 4.324219 9.0625 5.125 C 9.625 5.925781 10.078125 7.265625 10.375 8.9375 C 10.824219 11.445313 10.964844 14.71875 11 18.3125 C 11 18.398438 11 18.476563 11 18.5625 C 11.011719 19.683594 11 20.835938 11 22 L 13 22 C 13 20.75 13.007813 19.519531 13 18.3125 C 13.039063 14.988281 13.1875 11.785156 13.625 9.25 C 13.925781 7.515625 14.359375 6.128906 14.9375 5.25 C 15.515625 4.371094 16.078125 4 17 4 C 18.105469 4 18.777344 4.527344 19.28125 5.21875 C 19.785156 5.910156 20 6.867188 20 7 L 22 7 C 22 6.132813 21.675781 5.089844 20.90625 4.03125 C 20.136719 2.972656 18.792969 2 17 2 C 15.421875 2 14.109375 2.863281 13.28125 4.125 C 12.738281 4.953125 12.335938 5.949219 12.03125 7.0625 C 11.722656 5.886719 11.316406 4.851563 10.71875 4 C 9.875 2.800781 8.550781 2 7 2 Z"/></svg>