<svg xmlns="http://www.w3.org/2000/svg" viewBox="0 0 32 32"><g id="astrology"><path d="M26,20a4,4,0,0,0-1.55.31A11,11,0,0,1,25,19,9.9,9.9,0,0,0,26,16a9.25,9.25,0,0,0,0-2h0A10,10,0,0,0,6,14H6a9.35,9.35,0,0,0,0,2A9.92,9.92,0,0,0,7,19a11,11,0,0,1,.54,1.27A4,4,0,1,0,10,24a3.41,3.41,0,0,0-.05-.46,10.33,10.33,0,0,0-.49-3.84c-.2-.57-.42-1.05-.63-1.51A7.33,7.33,0,0,1,8,15.72,6.75,6.75,0,0,1,8,14.1a.43.43,0,0,0,0,0S8,14,8,14a8,8,0,0,1,16,0s0,0,0,.05a.43.43,0,0,0,0,0,6.75,6.75,0,0,1,0,1.62,7.33,7.33,0,0,1-.81,2.47c-.21.46-.43.94-.63,1.51a10.33,10.33,0,0,0-.49,3.84A3.41,3.41,0,0,0,22,24a4,4,0,1,0,4-4ZM6,26a2,2,0,1,1,2-2.43c0,.12,0,.22,0,.34a1,1,0,0,0,0,.35A2,2,0,0,1,6,26Zm20,0a2,2,0,0,1-2-1.74,1,1,0,0,0,0-.35c0-.12,0-.22,0-.34A2,2,0,1,1,26,26Z"/></g></svg>