<svg xmlns="http://www.w3.org/2000/svg" viewBox="0 0 32 32"><g id="cancer"><path d="M30,19.5a5.5,5.5,0,1,0-8.31,4.72,21.83,21.83,0,0,1-7,.75,22.2,22.2,0,0,1-11.17-3.8,1,1,0,1,0-1.12,1.66A24.16,24.16,0,0,0,14.61,27c.45,0,.9,0,1.35,0a23.88,23.88,0,0,0,9.9-2.16l0,0A5.49,5.49,0,0,0,30,19.5ZM24.5,23A3.5,3.5,0,1,1,28,19.5,3.5,3.5,0,0,1,24.5,23Z"/><path d="M7.5,18A5.49,5.49,0,0,0,10.31,7.78a21.8,21.8,0,0,1,7-.75,22.2,22.2,0,0,1,11.17,3.8A1,1,0,0,0,29,11a1,1,0,0,0,.83-.44,1,1,0,0,0-.27-1.39,23.93,23.93,0,0,0-23.42-2l0,0A5.5,5.5,0,0,0,7.5,18Zm0-9A3.5,3.5,0,1,1,4,12.5,3.5,3.5,0,0,1,7.5,9Z"/></g></svg>