<svg xmlns="http://www.w3.org/2000/svg" viewBox="0 0 32 32"><g id="leaf"><path d="M26,18.9c-.34-3.27-1.77-5.59-4.15-9.43a64.54,64.54,0,0,0-5.08-7.1,1,1,0,0,0-1.54,0,65.9,65.9,0,0,0-5.08,7.1C7.77,13.31,6.34,15.63,6,18.9c-.19,1.94-.61,6,2.3,8.81a9.05,9.05,0,0,0,6.56,2.37H17.3a9.11,9.11,0,0,0,6.4-2.37C26.61,24.87,26.19,20.84,26,18.9Zm-3.7,7.39a7.08,7.08,0,0,1-5.13,1.79H17V26.41l4.71-4.7a1,1,0,0,0-1.42-1.42L17,23.59V20.41l3.71-3.7a1,1,0,0,0-1.42-1.42L17,17.59V10a1,1,0,0,0-2,0v7.59l-2.29-2.3a1,1,0,0,0-1.42,1.42L15,20.41v3.18l-3.29-3.3a1,1,0,0,0-1.42,1.42L15,26.41v1.67h-.17A7.08,7.08,0,0,1,9.7,26.29C7.48,24.11,7.81,20.85,8,19.1c.28-2.7,1.39-4.58,3.86-8.57A64.25,64.25,0,0,1,16,4.6a64.25,64.25,0,0,1,4.15,5.93c2.47,4,3.58,5.88,3.85,8.57C24.19,20.85,24.52,24.11,22.3,26.29Z"/></g></svg>