<svg xmlns="http://www.w3.org/2000/svg" viewBox="0 0 32 32"><g id="leo"><path d="M28,23a1,1,0,0,0-1,1,4,4,0,0,1-8,0s0,0,0,0v0a13.62,13.62,0,0,1,.31-3.85A16.73,16.73,0,0,1,20.43,17a15.85,15.85,0,0,0,1.41-4.49A16,16,0,0,0,22,10h0A8,8,0,0,0,6,10H6a10.59,10.59,0,0,0,.19,2.1A11.89,11.89,0,0,0,8,16.33l.54.93A5.1,5.1,0,0,0,7,17a5,5,0,1,0,5,5s0,0,0-.06v0l0-.18a4.13,4.13,0,0,0-.11-.86,11.93,11.93,0,0,0-.36-1.7A15.49,15.49,0,0,0,9.69,15.3a10.15,10.15,0,0,1-1.54-3.57A9.09,9.09,0,0,1,8,10H8a6,6,0,0,1,12,0h0a13.36,13.36,0,0,1-.14,2.19,13.94,13.94,0,0,1-1.26,4,17.49,17.49,0,0,0-1.23,3.46A15.35,15.35,0,0,0,17,24h0v.06h0A6,6,0,0,0,29,24,1,1,0,0,0,28,23ZM7,25a3,3,0,1,1,2.9-3.73c0,.25.08.5.1.76A3,3,0,0,1,7,25Z"/></g></svg>