<svg fill="#000000" xmlns="http://www.w3.org/2000/svg"  viewBox="0 0 24 24" width="24px" height="24px"><path d="M 12 3 C 7.636719 3 4 6.074219 4 10 C 4 11.542969 4.722656 12.851563 5.6875 14 L 2 14 L 2 16 L 9 16 L 9 14.34375 L 8.53125 14.03125 C 6.976563 13.082031 6 11.601563 6 10 C 6 7.328125 8.5625 5 12 5 C 15.4375 5 18 7.328125 18 10 C 18 11.601563 17.023438 13.082031 15.46875 14.03125 L 15 14.34375 L 15 16 L 22 16 L 22 14 L 18.3125 14 C 19.277344 12.851563 20 11.542969 20 10 C 20 6.074219 16.363281 3 12 3 Z M 2 19 L 2 21 L 22 21 L 22 19 Z"/></svg>