<svg xmlns="http://www.w3.org/2000/svg" viewBox="0 0 32 32"><g id="moon"><path d="M29.39,15.71a1,1,0,0,0-1.09.21,8.92,8.92,0,0,1-12.46,0,8.58,8.58,0,0,1,0-12.21A1,1,0,0,0,15,2,15.05,15.05,0,0,0,5.81,7.65c-3.2,4.34-4.23,11.56,0,17A14.62,14.62,0,0,0,17.2,30a12.77,12.77,0,0,0,7-2C29.75,24.3,30,17.42,30,16.65A1,1,0,0,0,29.39,15.71ZM23.12,26.29c-4.78,3.15-12,1.81-15.72-2.93s-2.73-10.79,0-14.52a12.32,12.32,0,0,1,5.09-4,10.59,10.59,0,0,0,1.93,12.47,11,11,0,0,0,13.3,1.52A11.35,11.35,0,0,1,23.12,26.29Z"/></g></svg>