<svg xmlns="http://www.w3.org/2000/svg" viewBox="0 0 32 32"><g id="neptune"><path d="M28.8,12.4l-3-4a1,1,0,0,0-1.6,0l-3,4a1,1,0,0,0,1.6,1.2L24,12a8.23,8.23,0,0,1-2.17,5.4A8.1,8.1,0,0,1,17,19.93V6l1.2,1.6A1,1,0,0,0,19,8a1,1,0,0,0,.6-.2,1,1,0,0,0,.2-1.4l-3-4s0,0,0,0a1,1,0,0,0-1.52,0s0,0,0,0l-3,4a1,1,0,1,0,1.6,1.2L15,6V19.93a8.1,8.1,0,0,1-4.86-2.57A8.23,8.23,0,0,1,8,12L9.2,13.6a1,1,0,0,0,.8.4,1,1,0,0,0,.6-.2,1,1,0,0,0,.2-1.4l-3-4a1,1,0,0,0-1.6,0l-3,4a1,1,0,1,0,1.6,1.2L6,12a10.29,10.29,0,0,0,2.69,6.67A10.09,10.09,0,0,0,15,22V24H12a1,1,0,0,0,0,2h3v3a1,1,0,0,0,2,0V26h3a1,1,0,0,0,0-2H17V22a10.09,10.09,0,0,0,6.34-3.24A10.29,10.29,0,0,0,26,12L27.2,13.6a1,1,0,0,0,.8.4,1,1,0,0,0,.6-.2A1,1,0,0,0,28.8,12.4Z"/></g></svg>