<svg xmlns="http://www.w3.org/2000/svg" viewBox="0 0 32 32"><g id="ophiuchus"><path d="M27.81,15.43a1,1,0,0,0-1.39-.23,13.06,13.06,0,0,1-1.42.88V3a1,1,0,0,0-2,0V16.84a6.11,6.11,0,0,1-1.94.17c-2.08-.13-3.58-1.28-5.17-2.49s-3.48-2.67-6-2.51a7.5,7.5,0,0,0-.93.15V3A1,1,0,0,0,7,3V13a10.89,10.89,0,0,0-2.76,2.39,1,1,0,1,0,1.52,1.3A12.08,12.08,0,0,1,7,15.42V21a9,9,0,0,0,18,0V18.28a13,13,0,0,0,2.58-1.46A1,1,0,0,0,27.81,15.43ZM23,21A7,7,0,0,1,9,21V14.23A4.08,4.08,0,0,1,10.07,14c1.69-.11,3,.91,4.61,2.1s3.57,2.73,6.26,2.9l.53,0A8.8,8.8,0,0,0,23,18.89Z"/></g></svg>