<svg fill="#000000" xmlns="http://www.w3.org/2000/svg"  viewBox="0 0 24 24" width="24px" height="24px"><path d="M 18.375 2 C 18.375 2 15.332031 5.226563 15.03125 11 L 8.96875 11 C 8.625 5.246094 5.625 2.09375 5.625 2.09375 L 4.1875 3.5 C 4.1875 3.5 6.644531 5.984375 6.96875 11 L 5 11 L 5 13 L 6.96875 13 C 6.691406 18.132813 4.1875 20.59375 4.1875 20.59375 L 5.59375 22 C 5.59375 22 8.675781 18.859375 8.96875 13 L 15.03125 13 C 15.382813 18.664063 18.375 21.875 18.375 21.875 L 19.84375 20.5 C 19.84375 20.5 17.359375 17.941406 17.03125 13 L 19 13 L 19 11 L 17.03125 11 C 17.308594 5.945313 19.8125 3.40625 19.8125 3.40625 Z"/></svg>