<svg xmlns="http://www.w3.org/2000/svg" viewBox="0 0 32 32"><g id="pisces"><path d="M23.05,17H26a1,1,0,0,0,0-2H23a22.32,22.32,0,0,1,3.8-11.44,1,1,0,0,0-1.66-1.12A24.51,24.51,0,0,0,21,15H11A24.51,24.51,0,0,0,6.83,2.44,1,1,0,0,0,5.17,3.56,22.32,22.32,0,0,1,9,15H6a1,1,0,0,0,0,2H9A22.49,22.49,0,0,1,5.17,28.44a1,1,0,0,0,.27,1.39A1,1,0,0,0,6,30a1,1,0,0,0,.83-.44A24.62,24.62,0,0,0,11,17H21a24.62,24.62,0,0,0,4.15,12.56A1,1,0,0,0,26,30a1,1,0,0,0,.56-.17,1,1,0,0,0,.27-1.39A22.49,22.49,0,0,1,23.05,17Z"/></g></svg>