<svg xmlns="http://www.w3.org/2000/svg" viewBox="0 0 32 32"><g id="sagittarius"><path d="M25.81,2.68a0,0,0,0,0,0,0,.79.79,0,0,0-.1-.28s0-.06,0-.09A1,1,0,0,0,25.38,2,1,1,0,0,0,25,1.84h-.07a1.22,1.22,0,0,0-.33,0h0L10.15,5.42a1,1,0,0,0,.48,1.94L22.55,4.41,14,17.21,5.66,11.64A1,1,0,1,0,4.55,13.3l8.3,5.58L6.43,28.44a1,1,0,0,0,.28,1.39.94.94,0,0,0,.55.17,1,1,0,0,0,.84-.44L14.51,20l8.31,5.57a1,1,0,0,0,.55.17,1,1,0,0,0,.56-1.83l-8.3-5.57,8.58-12.8L26,17.67a1,1,0,0,0,1,.86h.15A1,1,0,0,0,28,17.38Z"/></g></svg>