<svg xmlns="http://www.w3.org/2000/svg" viewBox="0 0 32 32"><g id="saturn"><path d="M27,25a1,1,0,0,0-1,1,2,2,0,0,1-4,0v0a10.88,10.88,0,0,1,0-1.28,15.27,15.27,0,0,1,.52-3,13.16,13.16,0,0,0,.52-3.52c0-.56,0-1-.05-1.22h0a7,7,0,0,0-12-4.79V8h3a1,1,0,0,0,0-2H11V3A1,1,0,0,0,9,3V6H6A1,1,0,0,0,6,8H9V29a1,1,0,0,0,2,0V17a5,5,0,0,1,10,0s0,0,0,.05,0,0,0,.05a9.66,9.66,0,0,1,.05,1,11.22,11.22,0,0,1-.46,3A17.19,17.19,0,0,0,20,24.57,13.41,13.41,0,0,0,20,26h0v0a0,0,0,0,0,0,0A4,4,0,0,0,28,26,1,1,0,0,0,27,25Z"/></g></svg>