<svg xmlns="http://www.w3.org/2000/svg" viewBox="0 0 32 32"><g id="scorpio"><path d="M29.83,22.45l-2-3a1,1,0,0,0-1.66,0l-2,3a1,1,0,1,0,1.66,1.1L26,23.3v2.2a2.5,2.5,0,0,1-5,0v-15C21,6.7,18.74,5,16.5,5A4.46,4.46,0,0,0,13,6.71a4.45,4.45,0,0,0-6-.93A4,4,0,0,0,3,2,1,1,0,0,0,3,4,2,2,0,0,1,5,6V9a1,1,0,0,0,0,.17c0,.11,0,.22,0,.33V29a1,1,0,0,0,2,0V9.5a2.5,2.5,0,0,1,5,0V29a1,1,0,0,0,2,0V9.5A2.5,2.5,0,0,1,16.5,7C18,7,19,8.34,19,10.5v15a4.5,4.5,0,0,0,9,0V23.3l.17.25A1,1,0,0,0,29,24a.94.94,0,0,0,.55-.17A1,1,0,0,0,29.83,22.45Z"/></g></svg>