<svg fill="#000000" xmlns="http://www.w3.org/2000/svg"  viewBox="0 0 24 24" width="24px" height="24px"><path d="M 8.5 2 C 7.738281 2 7.410156 2.398438 7.0625 2.75 C 6.722656 3.09375 6.414063 3.507813 6.125 3.96875 C 6.027344 3.792969 5.914063 3.617188 5.8125 3.46875 C 5.214844 2.601563 4.53125 2.15625 4.53125 2.15625 L 3.46875 3.84375 C 3.46875 3.84375 3.785156 4.042969 4.1875 4.625 C 4.589844 5.207031 5 6.109375 5 7.5 L 5 17 L 7 17 L 7 7.5 C 7 7.359375 6.976563 7.226563 6.96875 7.09375 L 7 7.09375 C 7 6.796875 7.347656 5.8125 7.8125 5.0625 C 8.042969 4.6875 8.273438 4.351563 8.46875 4.15625 C 8.476563 4.164063 8.492188 4.144531 8.5 4.15625 C 8.703125 4.378906 8.949219 4.757813 9.1875 5.15625 C 9.425781 5.554688 9.632813 6 9.78125 6.375 C 9.929688 6.75 10 7.078125 10 7.09375 L 10 17 L 12 17 L 12 7.09375 C 12 6.796875 12.347656 5.8125 12.8125 5.0625 C 13.042969 4.6875 13.273438 4.351563 13.46875 4.15625 C 13.476563 4.164063 13.492188 4.144531 13.5 4.15625 C 13.703125 4.378906 13.949219 4.757813 14.1875 5.15625 C 14.425781 5.554688 14.632813 6 14.78125 6.375 C 14.929688 6.75 15 7.078125 15 7.09375 L 15 14.8125 C 15 16.757813 16.183594 18.433594 17.25 19.6875 C 17.347656 19.800781 17.433594 19.890625 17.53125 20 L 16 20 L 16 22 L 21 22 L 21 17 L 19 17 L 19 18.65625 C 18.914063 18.5625 18.835938 18.476563 18.75 18.375 C 17.816406 17.28125 17 15.867188 17 14.8125 L 17 7.09375 C 17 6.5625 16.851563 6.121094 16.65625 5.625 C 16.460938 5.128906 16.195313 4.613281 15.90625 4.125 C 15.617188 3.636719 15.3125 3.1875 14.96875 2.8125 C 14.625 2.4375 14.324219 2 13.5 2 C 12.738281 2 12.410156 2.398438 12.0625 2.75 C 11.714844 3.101563 11.386719 3.523438 11.09375 4 C 11.050781 4.074219 11.011719 4.144531 10.96875 4.21875 C 10.949219 4.1875 10.925781 4.15625 10.90625 4.125 C 10.617188 3.636719 10.3125 3.1875 9.96875 2.8125 C 9.625 2.4375 9.324219 2 8.5 2 Z"/></svg>