<svg fill="#000000" xmlns="http://www.w3.org/2000/svg"  viewBox="0 0 24 24" width="24px" height="24px"><path d="M 3 2 L 3 4 C 4.527344 4 5.207031 4.316406 5.625 4.6875 C 6.042969 5.058594 6.273438 5.59375 6.5625 6.34375 C 6.851563 7.09375 7.179688 8.058594 8.03125 8.8125 C 8.121094 8.890625 8.210938 8.988281 8.3125 9.0625 C 6.328125 10.300781 5 12.5 5 15 C 5 18.855469 8.144531 22 12 22 C 15.855469 22 19 18.855469 19 15 C 19 12.5 17.671875 10.300781 15.6875 9.0625 C 15.789063 8.988281 15.878906 8.890625 15.96875 8.8125 C 16.820313 8.058594 17.148438 7.09375 17.4375 6.34375 C 17.726563 5.59375 17.957031 5.058594 18.375 4.6875 C 18.792969 4.316406 19.472656 4 21 4 L 21 2 C 19.175781 2 17.882813 2.433594 17.03125 3.1875 C 16.179688 3.941406 15.851563 4.90625 15.5625 5.65625 C 15.273438 6.40625 15.042969 6.941406 14.625 7.3125 C 14.207031 7.683594 13.527344 8 12 8 C 10.472656 8 9.792969 7.683594 9.375 7.3125 C 8.957031 6.941406 8.726563 6.40625 8.4375 5.65625 C 8.148438 4.90625 7.820313 3.941406 6.96875 3.1875 C 6.117188 2.433594 4.824219 2 3 2 Z M 12 10 C 14.773438 10 17 12.226563 17 15 C 17 17.773438 14.773438 20 12 20 C 9.226563 20 7 17.773438 7 15 C 7 12.226563 9.226563 10 12 10 Z"/></svg>