<svg xmlns="http://www.w3.org/2000/svg" viewBox="0 0 32 32"><g id="uranus"><path d="M24,16A22.41,22.41,0,0,1,27.83,3.56a1,1,0,1,0-1.66-1.12A24.45,24.45,0,0,0,22,15H17V3a1,1,0,0,0-2,0V15H10A24.45,24.45,0,0,0,5.83,2.44,1,1,0,0,0,4.17,3.56,22.41,22.41,0,0,1,8,16,22.42,22.42,0,0,1,4.17,28.44a1,1,0,0,0,.27,1.39A1,1,0,0,0,5,30a1,1,0,0,0,.83-.44A24.53,24.53,0,0,0,10,17s0,0,0,0h5v5.14a4,4,0,1,0,2,0V17h5s0,0,0,0a24.53,24.53,0,0,0,4.15,12.57A1,1,0,0,0,27,30a1,1,0,0,0,.56-.17,1,1,0,0,0,.27-1.39A22.42,22.42,0,0,1,24,16ZM18,26a2,2,0,1,1-2-2A2,2,0,0,1,18,26Z"/></g></svg>