<svg xmlns="http://www.w3.org/2000/svg" viewBox="0 0 32 32"><g id="virgo"><path d="M24.5,5a4.48,4.48,0,0,0-3.56,1.78A4.2,4.2,0,0,0,17.5,5,4.46,4.46,0,0,0,14,6.71a4.45,4.45,0,0,0-6-.93A4,4,0,0,0,4,2,1,1,0,0,0,4,4,2,2,0,0,1,6,6V9a1,1,0,0,0,0,.17c0,.11,0,.22,0,.33V29a1,1,0,0,0,2,0V9.5a2.5,2.5,0,0,1,5,0V29a1,1,0,0,0,2,0V9.5A2.5,2.5,0,0,1,17.5,7C19,7,20,8.34,20,10.5V17H19a1,1,0,0,0,0,2h1V29a1,1,0,0,0,2,0V19h3.08A3.93,3.93,0,0,0,29,15.08V9.5A4.51,4.51,0,0,0,24.5,5ZM27,15.08A1.92,1.92,0,0,1,25.08,17H22V10.5c0-.26,0-.49-.06-.73A.76.76,0,0,0,22,9.5a2.5,2.5,0,0,1,5,0Z"/></g></svg>