<svg fill="#000000" xmlns="http://www.w3.org/2000/svg"  viewBox="0 0 24 24" width="24px" height="24px"><path d="M 8.5 2 C 7.738281 2 7.410156 2.398438 7.0625 2.75 C 6.722656 3.09375 6.414063 3.507813 6.125 3.96875 C 6.027344 3.792969 5.914063 3.617188 5.8125 3.46875 C 5.214844 2.601563 4.53125 2.15625 4.53125 2.15625 L 3.46875 3.84375 C 3.46875 3.84375 3.785156 4.042969 4.1875 4.625 C 4.589844 5.207031 5 6.109375 5 7.5 L 5 17 L 7 17 L 7 7.5 C 7 7.359375 6.976563 7.226563 6.96875 7.09375 L 7 7.09375 C 7 6.796875 7.347656 5.8125 7.8125 5.0625 C 8.042969 4.6875 8.273438 4.351563 8.46875 4.15625 C 8.476563 4.164063 8.492188 4.144531 8.5 4.15625 C 8.703125 4.378906 8.949219 4.757813 9.1875 5.15625 C 9.425781 5.554688 9.632813 6 9.78125 6.375 C 9.929688 6.75 10 7.078125 10 7.09375 L 10 17 L 12 17 L 12 7.09375 C 12 6.796875 12.347656 5.8125 12.8125 5.0625 C 13.042969 4.6875 13.273438 4.351563 13.46875 4.15625 C 13.476563 4.164063 13.492188 4.144531 13.5 4.15625 C 13.703125 4.378906 13.949219 4.757813 14.1875 5.15625 C 14.425781 5.554688 14.632813 6 14.78125 6.375 C 14.929688 6.75 15 7.078125 15 7.09375 L 15 17 C 15 17.574219 15.097656 18.144531 15.28125 18.6875 C 14.644531 18.875 13.902344 19 13 19 L 13 21 C 14.269531 21 15.363281 20.789063 16.3125 20.4375 C 17.167969 21.371094 18.460938 22 20 22 L 20 20 C 19.195313 20 18.609375 19.785156 18.15625 19.4375 C 18.65625 19.058594 19.089844 18.625 19.4375 18.15625 C 20.652344 16.515625 21 14.554688 21 13 C 21 11.535156 20.644531 10.351563 20.125 9.5 C 19.605469 8.648438 19.015625 8 18 8 C 17.496094 8 17.21875 8.191406 17 8.40625 L 17 7.09375 C 17 6.5625 16.851563 6.121094 16.65625 5.625 C 16.460938 5.128906 16.195313 4.613281 15.90625 4.125 C 15.617188 3.636719 15.3125 3.1875 14.96875 2.8125 C 14.625 2.4375 14.324219 2 13.5 2 C 12.738281 2 12.410156 2.398438 12.0625 2.75 C 11.714844 3.101563 11.386719 3.523438 11.09375 4 C 11.050781 4.074219 11.011719 4.144531 10.96875 4.21875 C 10.949219 4.1875 10.925781 4.15625 10.90625 4.125 C 10.617188 3.636719 10.3125 3.1875 9.96875 2.8125 C 9.625 2.4375 9.324219 2 8.5 2 Z M 18.09375 10.15625 C 18.109375 10.195313 18.183594 10.167969 18.40625 10.53125 C 18.710938 11.03125 19 11.867188 19 13 C 19 14.246094 18.703125 15.808594 17.84375 16.96875 C 17.636719 17.246094 17.402344 17.511719 17.125 17.75 C 17.0625 17.5 17 17.257813 17 17 L 17 13 C 17 12.683594 17.261719 11.710938 17.625 10.96875 C 17.789063 10.636719 17.949219 10.347656 18.09375 10.15625 Z"/></svg>